<svg width="256" height="277" viewBox="0 0 256 277" fill="none" xmlns="http://www.w3.org/2000/svg">
<path d="M0 257.146V231.936H10.7585C11.9658 231.936 13.0665 232.184 14.0607 232.681C15.0785 233.179 15.9425 233.829 16.6527 234.634C17.3865 235.439 17.9546 236.35 18.357 237.368C18.7831 238.386 18.9961 239.416 18.9961 240.457C18.9961 241.57 18.7949 242.635 18.3925 243.653C18.0137 244.671 17.4693 245.582 16.7592 246.387C16.0727 247.192 15.2324 247.831 14.2382 248.304C13.244 248.778 12.1433 249.015 10.9361 249.015H5.8231V257.146H0ZM5.8231 243.937H10.581C11.2675 243.937 11.8592 243.641 12.3563 243.049C12.8534 242.458 13.102 241.594 13.102 240.457C13.102 239.866 13.0191 239.357 12.8534 238.931C12.7114 238.505 12.5102 238.149 12.2498 237.865C11.9894 237.581 11.6935 237.38 11.3622 237.262C11.0308 237.12 10.6994 237.049 10.368 237.049H5.8231V243.937Z" fill="#3C3C3D"/>
<path d="M33.1649 257.359C31.2949 257.359 29.5906 256.992 28.052 256.258C26.5134 255.524 25.1996 254.565 24.1107 253.382C23.0219 252.175 22.1697 250.802 21.5542 249.263C20.9625 247.724 20.6666 246.138 20.6666 244.505C20.6666 242.848 20.9743 241.25 21.5898 239.712C22.2289 238.173 23.1047 236.824 24.2173 235.664C25.3535 234.48 26.6909 233.545 28.2295 232.859C29.7681 232.149 31.4488 231.794 33.2715 231.794C35.1415 231.794 36.8458 232.161 38.3844 232.894C39.9231 233.628 41.2368 234.599 42.3257 235.806C43.4146 237.013 44.2549 238.386 44.8467 239.925C45.4384 241.463 45.7343 243.026 45.7343 244.612C45.7343 246.269 45.4148 247.866 44.7756 249.405C44.1602 250.944 43.2962 252.305 42.1837 253.488C41.0711 254.648 39.7455 255.583 38.2069 256.293C36.6683 257.004 34.9876 257.359 33.1649 257.359ZM26.5962 244.576C26.5962 245.547 26.7382 246.494 27.0223 247.417C27.3063 248.316 27.7206 249.121 28.265 249.831C28.8331 250.541 29.5314 251.109 30.3599 251.536C31.1884 251.962 32.1352 252.175 33.2005 252.175C34.313 252.175 35.2835 251.95 36.112 251.5C36.9405 251.05 37.627 250.47 38.1714 249.76C38.7158 249.026 39.1182 248.21 39.3786 247.31C39.6627 246.387 39.8047 245.452 39.8047 244.505C39.8047 243.535 39.6627 242.6 39.3786 241.7C39.0946 240.777 38.6685 239.972 38.1004 239.286C37.5323 238.576 36.834 238.019 36.0055 237.617C35.2007 237.191 34.2657 236.978 33.2005 236.978C32.0879 236.978 31.1174 237.203 30.2889 237.652C29.4841 238.078 28.7976 238.647 28.2295 239.357C27.6851 240.067 27.2708 240.883 26.9868 241.807C26.7264 242.706 26.5962 243.629 26.5962 244.576Z" fill="#3C3C3D"/>
<path d="M49.0991 257.146V231.936H54.9222V257.146H49.0991Z" fill="#3C3C3D"/>
<path d="M65.5673 242.73V257.146H59.7442V231.936H64.2891L76.0418 246.742V231.936H81.8649V257.146H77.178L65.5673 242.73Z" fill="#3C3C3D"/>
<path d="M105.895 237.049H98.226V257.146H92.4029V237.049H84.698V231.936H105.895V237.049Z" fill="#3C3C3D"/>
<path d="M130.739 236.037C130.028 235.232 129.082 234.581 127.898 234.084C126.715 233.587 125.365 233.339 123.85 233.339C121.625 233.339 120.004 233.765 118.986 234.617C117.968 235.445 117.459 236.582 117.459 238.025C117.459 238.783 117.589 239.41 117.85 239.907C118.134 240.381 118.56 240.795 119.128 241.15C119.696 241.505 120.418 241.813 121.294 242.073C122.193 242.334 123.247 242.594 124.454 242.854C125.803 243.138 127.01 243.458 128.076 243.813C129.165 244.168 130.088 244.618 130.845 245.162C131.603 245.683 132.183 246.322 132.585 247.08C132.987 247.837 133.189 248.784 133.189 249.92C133.189 251.08 132.964 252.086 132.514 252.938C132.064 253.79 131.437 254.501 130.632 255.069C129.827 255.637 128.869 256.063 127.756 256.347C126.644 256.607 125.424 256.738 124.099 256.738C120.193 256.738 116.82 255.518 113.979 253.08L115.222 251.056C115.672 251.53 116.205 251.98 116.82 252.406C117.459 252.832 118.157 253.211 118.915 253.542C119.696 253.85 120.525 254.098 121.4 254.288C122.276 254.453 123.199 254.536 124.17 254.536C126.182 254.536 127.744 254.181 128.857 253.471C129.993 252.737 130.561 251.636 130.561 250.169C130.561 249.388 130.395 248.737 130.064 248.216C129.756 247.671 129.283 247.21 128.644 246.831C128.005 246.429 127.212 246.086 126.265 245.801C125.318 245.517 124.217 245.233 122.963 244.949C121.637 244.642 120.477 244.322 119.483 243.991C118.489 243.659 117.648 243.245 116.962 242.748C116.276 242.251 115.755 241.659 115.4 240.973C115.068 240.262 114.903 239.398 114.903 238.381C114.903 237.221 115.116 236.191 115.542 235.291C115.992 234.368 116.619 233.611 117.424 233.019C118.228 232.404 119.175 231.942 120.264 231.634C121.353 231.303 122.56 231.137 123.886 231.137C125.566 231.137 127.058 231.398 128.36 231.918C129.685 232.415 130.881 233.126 131.946 234.049L130.739 236.037Z" fill="#3C3C3D"/>
<path d="M154.508 254.323V256.525H137.571V231.315H154.188V233.516H140.056V242.606H152.377V244.701H140.056V254.323H154.508Z" fill="#3C3C3D"/>
<path d="M159.208 256.525V231.315H169.86C170.949 231.315 171.943 231.551 172.842 232.025C173.766 232.475 174.559 233.078 175.221 233.836C175.884 234.57 176.393 235.41 176.748 236.357C177.127 237.304 177.316 238.262 177.316 239.233C177.316 240.156 177.174 241.044 176.89 241.896C176.63 242.724 176.251 243.482 175.754 244.168C175.281 244.831 174.701 245.399 174.014 245.872C173.328 246.322 172.558 246.63 171.706 246.796L177.884 256.525H175.079L169.15 247.222H161.693V256.525H159.208ZM161.693 245.02H169.931C170.665 245.02 171.327 244.866 171.919 244.559C172.535 244.227 173.055 243.789 173.482 243.245C173.908 242.701 174.239 242.085 174.476 241.399C174.712 240.712 174.831 239.99 174.831 239.233C174.831 238.475 174.689 237.753 174.405 237.067C174.144 236.357 173.777 235.741 173.304 235.22C172.854 234.7 172.31 234.285 171.671 233.978C171.055 233.67 170.404 233.516 169.718 233.516H161.693V245.02Z" fill="#3C3C3D"/>
<path d="M181.709 231.315L190.728 253.435L199.711 231.315H202.303L191.793 256.525H189.627L179.117 231.315H181.709Z" fill="#3C3C3D"/>
<path d="M205.914 256.525V231.315H208.4V256.525H205.914Z" fill="#3C3C3D"/>
<path d="M213.053 243.742C213.053 242.227 213.313 240.724 213.834 239.233C214.379 237.718 215.16 236.369 216.178 235.185C217.195 234.001 218.45 233.043 219.941 232.309C221.433 231.551 223.125 231.173 225.019 231.173C227.267 231.173 229.185 231.682 230.771 232.699C232.38 233.717 233.564 235.043 234.321 236.676L232.369 237.883C231.966 237.055 231.469 236.357 230.877 235.789C230.309 235.22 229.694 234.759 229.031 234.404C228.368 234.049 227.682 233.8 226.972 233.658C226.261 233.492 225.563 233.41 224.877 233.41C223.362 233.41 222.024 233.717 220.864 234.333C219.705 234.948 218.722 235.753 217.917 236.747C217.136 237.741 216.544 238.866 216.142 240.12C215.74 241.351 215.538 242.606 215.538 243.884C215.538 245.281 215.775 246.618 216.249 247.896C216.746 249.175 217.408 250.311 218.237 251.305C219.089 252.276 220.083 253.057 221.219 253.648C222.379 254.217 223.634 254.501 224.983 254.501C225.693 254.501 226.415 254.418 227.149 254.252C227.907 254.063 228.629 253.779 229.315 253.4C230.025 252.997 230.676 252.512 231.268 251.944C231.86 251.352 232.357 250.642 232.759 249.814L234.819 250.879C234.416 251.826 233.848 252.666 233.114 253.4C232.38 254.11 231.564 254.714 230.664 255.211C229.765 255.708 228.806 256.087 227.788 256.347C226.794 256.607 225.812 256.738 224.841 256.738C223.113 256.738 221.527 256.359 220.083 255.601C218.639 254.844 217.397 253.861 216.355 252.654C215.314 251.423 214.497 250.039 213.905 248.5C213.337 246.938 213.053 245.352 213.053 243.742Z" fill="#3C3C3D"/>
<path d="M256 254.323V256.525H239.063V231.315H255.68V233.516H241.549V242.606H253.87V244.701H241.549V254.323H256Z" fill="#3C3C3D"/>
<path d="M37.1056 274.095V265.056H40.479C41.2258 265.056 41.8793 265.175 42.4394 265.413C42.9995 265.65 43.4663 265.973 43.8397 266.38C44.2216 266.788 44.5059 267.267 44.6926 267.819C44.8878 268.362 44.9854 268.943 44.9854 269.563C44.9854 270.25 44.8793 270.874 44.6672 271.434C44.455 271.986 44.1495 272.461 43.7506 272.86C43.3602 273.25 42.885 273.556 42.3248 273.776C41.7732 273.989 41.1579 274.095 40.479 274.095H37.1056ZM42.8595 269.563C42.8595 269.164 42.8043 268.803 42.694 268.481C42.5922 268.15 42.4394 267.865 42.2357 267.628C42.032 267.39 41.7817 267.208 41.4847 267.08C41.1876 266.953 40.8524 266.89 40.479 266.89H39.1933V272.262H40.479C40.8609 272.262 41.2004 272.194 41.4974 272.058C41.7944 271.922 42.0405 271.735 42.2357 271.498C42.4394 271.252 42.5922 270.967 42.694 270.645C42.8043 270.314 42.8595 269.953 42.8595 269.563Z" fill="#3C3C3D"/>
<path d="M52.5702 272.262V274.095H46.2179V265.056H52.4556V266.89H48.3056V268.646H51.87V270.339H48.3056V272.262H52.5702Z" fill="#3C3C3D"/>
<path d="M53.8385 274.095V265.056H55.9262V272.262H60.3053V274.095H53.8385Z" fill="#3C3C3D"/>
<path d="M61.285 274.095V265.056H63.3727V274.095H61.285Z" fill="#3C3C3D"/>
<path d="M66.4127 265.056L68.5386 271.472L70.639 265.056H72.8413L69.417 274.095H67.6602L64.1977 265.056H66.4127Z" fill="#3C3C3D"/>
<path d="M80.0316 272.262V274.095H73.6793V265.056H79.917V266.89H75.767V268.646H79.3314V270.339H75.767V272.262H80.0316Z" fill="#3C3C3D"/>
<path d="M81.2999 274.095V265.056H85.3735C85.7978 265.056 86.1882 265.146 86.5446 265.324C86.9096 265.502 87.2236 265.735 87.4866 266.024C87.7497 266.312 87.9534 266.639 88.0977 267.004C88.2504 267.369 88.3268 267.738 88.3268 268.112C88.3268 268.392 88.2929 268.663 88.225 268.926C88.1571 269.181 88.0595 269.423 87.9322 269.652C87.8049 269.881 87.6479 270.089 87.4612 270.276C87.283 270.454 87.0793 270.607 86.8501 270.734L88.836 274.095H86.481L84.7497 271.18H83.3876V274.095H81.2999ZM83.3876 269.359H85.2971C85.5432 269.359 85.7554 269.245 85.9336 269.015C86.1118 268.778 86.2009 268.477 86.2009 268.112C86.2009 267.738 86.0991 267.441 85.8954 267.22C85.6917 267 85.4711 266.89 85.2334 266.89H83.3876V269.359Z" fill="#3C3C3D"/>
<path d="M90.9299 265.056L92.8776 269.206L94.8507 265.056H97.1294L93.9087 271.014V274.095H91.8337V270.989L88.664 265.056H90.9299Z" fill="#3C3C3D"/>
<path d="M100.507 274.095V265.056H103.88C104.627 265.056 105.28 265.175 105.841 265.413C106.401 265.65 106.867 265.973 107.241 266.38C107.623 266.788 107.907 267.267 108.094 267.819C108.289 268.362 108.387 268.943 108.387 269.563C108.387 270.25 108.28 270.874 108.068 271.434C107.856 271.986 107.551 272.461 107.152 272.86C106.761 273.25 106.286 273.556 105.726 273.776C105.174 273.989 104.559 274.095 103.88 274.095H100.507ZM106.261 269.563C106.261 269.164 106.205 268.803 106.095 268.481C105.993 268.15 105.841 267.865 105.637 267.628C105.433 267.39 105.183 267.208 104.886 267.08C104.589 266.953 104.254 266.89 103.88 266.89H102.594V272.262H103.88C104.262 272.262 104.602 272.194 104.899 272.058C105.196 271.922 105.442 271.735 105.637 271.498C105.841 271.252 105.993 270.967 106.095 270.645C106.205 270.314 106.261 269.953 106.261 269.563Z" fill="#3C3C3D"/>
<path d="M115.971 272.262V274.095H109.619V265.056H115.857V266.89H111.707V268.646H115.271V270.339H111.707V272.262H115.971Z" fill="#3C3C3D"/>
<path d="M119.689 269.499C119.689 268.956 119.791 268.417 119.994 267.882C120.198 267.339 120.495 266.856 120.885 266.431C121.276 266.007 121.751 265.663 122.311 265.4C122.871 265.137 123.508 265.005 124.221 265.005C125.069 265.005 125.803 265.188 126.423 265.553C127.051 265.918 127.518 266.393 127.823 266.979L126.219 268.099C126.117 267.861 125.986 267.666 125.825 267.513C125.672 267.352 125.502 267.225 125.316 267.131C125.129 267.03 124.938 266.962 124.743 266.928C124.547 266.885 124.357 266.864 124.17 266.864C123.771 266.864 123.423 266.945 123.126 267.106C122.829 267.267 122.583 267.475 122.388 267.73C122.192 267.984 122.048 268.273 121.955 268.595C121.861 268.918 121.815 269.245 121.815 269.576C121.815 269.932 121.87 270.276 121.98 270.607C122.091 270.938 122.248 271.23 122.451 271.485C122.663 271.74 122.914 271.943 123.202 272.096C123.499 272.24 123.83 272.312 124.195 272.312C124.382 272.312 124.573 272.291 124.768 272.249C124.972 272.198 125.163 272.126 125.341 272.032C125.528 271.931 125.697 271.803 125.85 271.651C126.003 271.489 126.126 271.294 126.219 271.065L127.925 272.071C127.789 272.402 127.586 272.699 127.314 272.962C127.051 273.225 126.745 273.445 126.398 273.624C126.05 273.802 125.68 273.938 125.29 274.031C124.9 274.124 124.518 274.171 124.144 274.171C123.491 274.171 122.888 274.04 122.337 273.776C121.794 273.505 121.323 273.148 120.924 272.707C120.533 272.266 120.228 271.765 120.007 271.205C119.795 270.645 119.689 270.076 119.689 269.499Z" fill="#3C3C3D"/>
<path d="M132.847 274.171C132.177 274.171 131.566 274.04 131.014 273.776C130.462 273.513 129.991 273.17 129.601 272.745C129.211 272.312 128.905 271.82 128.684 271.269C128.472 270.717 128.366 270.148 128.366 269.563C128.366 268.969 128.476 268.396 128.697 267.844C128.926 267.293 129.24 266.809 129.639 266.393C130.046 265.969 130.526 265.633 131.078 265.387C131.629 265.133 132.232 265.005 132.885 265.005C133.556 265.005 134.167 265.137 134.718 265.4C135.27 265.663 135.741 266.011 136.131 266.444C136.522 266.877 136.823 267.369 137.035 267.921C137.247 268.472 137.353 269.032 137.353 269.601C137.353 270.195 137.239 270.768 137.01 271.32C136.789 271.871 136.479 272.359 136.08 272.783C135.682 273.199 135.206 273.535 134.655 273.789C134.103 274.044 133.501 274.171 132.847 274.171ZM130.492 269.588C130.492 269.936 130.543 270.276 130.645 270.607C130.747 270.929 130.895 271.218 131.09 271.472C131.294 271.727 131.544 271.931 131.841 272.083C132.138 272.236 132.478 272.312 132.86 272.312C133.259 272.312 133.607 272.232 133.904 272.071C134.201 271.909 134.447 271.701 134.642 271.447C134.837 271.184 134.981 270.891 135.075 270.568C135.177 270.237 135.228 269.902 135.228 269.563C135.228 269.215 135.177 268.88 135.075 268.557C134.973 268.226 134.82 267.938 134.617 267.692C134.413 267.437 134.162 267.237 133.865 267.093C133.577 266.94 133.242 266.864 132.86 266.864C132.461 266.864 132.113 266.945 131.816 267.106C131.527 267.259 131.281 267.462 131.078 267.717C130.882 267.972 130.734 268.264 130.632 268.595C130.539 268.918 130.492 269.249 130.492 269.588Z" fill="#3C3C3D"/>
<path d="M145.689 274.095V268.684L143.728 272.618H142.608L140.648 268.684V274.095H138.56V265.056H140.826L143.168 269.779L145.523 265.056H147.776V274.095H145.689Z" fill="#3C3C3D"/>
<path d="M149.512 274.095V265.056H151.6V274.095H149.512Z" fill="#3C3C3D"/>
<path d="M153.329 274.095V265.056H156.702C157.449 265.056 158.102 265.175 158.662 265.413C159.223 265.65 159.689 265.973 160.063 266.38C160.445 266.788 160.729 267.267 160.916 267.819C161.111 268.362 161.208 268.943 161.208 269.563C161.208 270.25 161.102 270.874 160.89 271.434C160.678 271.986 160.372 272.461 159.974 272.86C159.583 273.25 159.108 273.556 158.548 273.776C157.996 273.989 157.381 274.095 156.702 274.095H153.329ZM159.082 269.563C159.082 269.164 159.027 268.803 158.917 268.481C158.815 268.15 158.662 267.865 158.459 267.628C158.255 267.39 158.005 267.208 157.708 267.08C157.411 266.953 157.075 266.89 156.702 266.89H155.416V272.262H156.702C157.084 272.262 157.423 272.194 157.72 272.058C158.017 271.922 158.264 271.735 158.459 271.498C158.662 271.252 158.815 270.967 158.917 270.645C159.027 270.314 159.082 269.953 159.082 269.563Z" fill="#3C3C3D"/>
<path d="M164.575 265.056H166.459L169.756 274.095H167.617L166.917 272.071H164.104L163.416 274.095H161.278L164.575 265.056ZM166.573 270.632L165.517 267.437L164.435 270.632H166.573Z" fill="#3C3C3D"/>
<path d="M173.219 274.095V265.056H177.076C177.509 265.056 177.904 265.146 178.26 265.324C178.625 265.502 178.935 265.735 179.189 266.024C179.453 266.312 179.656 266.639 179.8 267.004C179.953 267.369 180.03 267.738 180.03 268.112C180.03 268.51 179.958 268.892 179.813 269.257C179.677 269.622 179.482 269.949 179.228 270.237C178.982 270.526 178.68 270.755 178.324 270.925C177.967 271.095 177.573 271.18 177.14 271.18H175.307V274.095H173.219ZM175.307 269.359H177.013C177.259 269.359 177.471 269.253 177.649 269.041C177.827 268.829 177.916 268.519 177.916 268.112C177.916 267.899 177.887 267.717 177.827 267.564C177.776 267.411 177.704 267.284 177.611 267.182C177.518 267.08 177.412 267.008 177.293 266.966C177.174 266.915 177.055 266.89 176.936 266.89H175.307V269.359Z" fill="#3C3C3D"/>
<path d="M185.11 274.171C184.439 274.171 183.828 274.04 183.276 273.776C182.725 273.513 182.254 273.17 181.863 272.745C181.473 272.312 181.167 271.82 180.947 271.269C180.735 270.717 180.629 270.148 180.629 269.563C180.629 268.969 180.739 268.396 180.96 267.844C181.189 267.293 181.503 266.809 181.902 266.393C182.309 265.969 182.788 265.633 183.34 265.387C183.892 265.133 184.494 265.005 185.148 265.005C185.818 265.005 186.429 265.137 186.981 265.4C187.532 265.663 188.003 266.011 188.394 266.444C188.784 266.877 189.085 267.369 189.298 267.921C189.51 268.472 189.616 269.032 189.616 269.601C189.616 270.195 189.501 270.768 189.272 271.32C189.052 271.871 188.742 272.359 188.343 272.783C187.944 273.199 187.469 273.535 186.917 273.789C186.366 274.044 185.763 274.171 185.11 274.171ZM182.754 269.588C182.754 269.936 182.805 270.276 182.907 270.607C183.009 270.929 183.158 271.218 183.353 271.472C183.556 271.727 183.807 271.931 184.104 272.083C184.401 272.236 184.74 272.312 185.122 272.312C185.521 272.312 185.869 272.232 186.166 272.071C186.463 271.909 186.709 271.701 186.904 271.447C187.1 271.184 187.244 270.891 187.337 270.568C187.439 270.237 187.49 269.902 187.49 269.563C187.49 269.215 187.439 268.88 187.337 268.557C187.235 268.226 187.083 267.938 186.879 267.692C186.675 267.437 186.425 267.237 186.128 267.093C185.839 266.94 185.504 266.864 185.122 266.864C184.723 266.864 184.375 266.945 184.078 267.106C183.79 267.259 183.544 267.462 183.34 267.717C183.145 267.972 182.996 268.264 182.894 268.595C182.801 268.918 182.754 269.249 182.754 269.588Z" fill="#3C3C3D"/>
<path d="M190.822 274.095V265.056H194.896C195.32 265.056 195.711 265.146 196.067 265.324C196.432 265.502 196.746 265.735 197.009 266.024C197.272 266.312 197.476 266.639 197.62 267.004C197.773 267.369 197.849 267.738 197.849 268.112C197.849 268.392 197.815 268.663 197.747 268.926C197.679 269.181 197.582 269.423 197.455 269.652C197.327 269.881 197.17 270.089 196.984 270.276C196.805 270.454 196.602 270.607 196.373 270.734L198.358 274.095H196.003L194.272 271.18H192.91V274.095H190.822ZM192.91 269.359H194.819C195.066 269.359 195.278 269.245 195.456 269.015C195.634 268.778 195.723 268.477 195.723 268.112C195.723 267.738 195.621 267.441 195.418 267.22C195.214 267 194.993 266.89 194.756 266.89H192.91V269.359Z" fill="#3C3C3D"/>
<path d="M202.321 274.095V265.056H204.409V268.952L207.719 265.056H210.061L206.675 269.092L210.29 274.095H207.91L205.351 270.454L204.409 271.434V274.095H202.321Z" fill="#3C3C3D"/>
<path d="M213.045 274.12C212.603 274.12 212.2 274.031 211.835 273.853C211.471 273.675 211.156 273.433 210.893 273.127C210.639 272.822 210.439 272.465 210.295 272.058C210.151 271.651 210.079 271.213 210.079 270.747C210.079 270.254 210.155 269.8 210.308 269.385C210.461 268.96 210.673 268.595 210.944 268.29C211.216 267.976 211.543 267.73 211.925 267.551C212.306 267.373 212.727 267.284 213.185 267.284C213.694 267.284 214.135 267.394 214.509 267.615C214.891 267.827 215.196 268.124 215.425 268.506V267.411H217.195V273.636C217.195 274.146 217.097 274.604 216.902 275.011C216.715 275.419 216.452 275.762 216.113 276.042C215.773 276.331 215.366 276.552 214.891 276.704C214.415 276.857 213.893 276.933 213.325 276.933C212.603 276.933 211.988 276.819 211.479 276.59C210.97 276.361 210.524 276.03 210.142 275.597L211.237 274.489C211.483 274.769 211.789 274.99 212.154 275.151C212.519 275.321 212.909 275.406 213.325 275.406C213.571 275.406 213.804 275.372 214.025 275.304C214.246 275.236 214.441 275.13 214.611 274.986C214.78 274.85 214.912 274.668 215.005 274.438C215.107 274.218 215.158 273.95 215.158 273.636V272.987C214.954 273.361 214.661 273.645 214.28 273.84C213.898 274.027 213.486 274.12 213.045 274.12ZM213.745 272.503C214.059 272.503 214.339 272.419 214.585 272.249C214.831 272.071 215.022 271.846 215.158 271.574V270.174C215.022 269.817 214.814 269.537 214.534 269.334C214.254 269.122 213.957 269.015 213.643 269.015C213.422 269.015 213.219 269.066 213.032 269.168C212.854 269.262 212.697 269.393 212.561 269.563C212.434 269.724 212.332 269.915 212.256 270.136C212.188 270.348 212.154 270.568 212.154 270.798C212.154 271.044 212.192 271.273 212.268 271.485C212.353 271.689 212.468 271.867 212.612 272.02C212.756 272.172 212.922 272.291 213.108 272.376C213.304 272.461 213.516 272.503 213.745 272.503Z" fill="#3C3C3D"/>
<path d="M126.753 -4.43429e-06C86.3228 -4.43429e-06 53.5439 32.7765 53.5439 73.2071C53.5439 107.98 107.694 179.519 122.851 198.867C124.838 201.403 128.666 201.403 130.653 198.867C145.811 179.519 199.961 107.98 199.961 73.2071C199.961 32.7765 167.184 -4.43429e-06 126.753 -4.43429e-06Z" fill="#E72A31"/>
<path d="M167.074 73.2071C167.074 95.4782 149.02 113.527 126.753 113.527C104.485 113.527 86.4331 95.4782 86.4331 73.2071C86.4331 50.9405 104.485 32.8868 126.753 32.8868C149.02 32.8868 167.074 50.9405 167.074 73.2071Z" fill="white"/>
<path d="M156.505 85.3869C152.344 89.5503 143.517 87.5271 136.863 80.8431C132.845 76.8529 130.527 72.0751 130.176 68.0287C129.767 63.1608 127.712 58.617 124.194 55.2457L106.424 38.3848C107.716 37.6241 109.064 36.9197 110.444 36.3323L126.364 53.0762C129.706 56.5937 134.281 58.6755 139.12 59.0558C143.193 59.4069 147.946 61.7249 151.961 65.7421C158.648 72.4261 160.671 81.2234 156.505 85.3869" fill="#EF3A48"/>
<path d="M147.096 108.023C145.775 108.786 144.427 109.488 143.018 110.104L125.925 92.1025C123.139 89.1701 119.241 87.5564 115.192 87.6734C112.906 87.732 110.59 86.8813 108.83 85.1236L91.472 67.7654C90.9161 67.2365 90.9454 66.3566 91.5035 65.8299C92.0301 65.3303 92.8493 65.3888 93.3782 65.9177L106.866 79.405C107.1 79.6121 107.363 79.7292 107.658 79.7292C107.95 79.7292 108.214 79.6121 108.45 79.405C108.889 78.9662 108.889 78.2618 108.45 77.8229L94.9333 64.2748C94.4044 63.7482 94.4045 62.8975 94.9626 62.3709C95.4892 61.8713 96.3399 61.9298 96.8395 62.4587L110.327 75.9167C110.559 76.1508 110.827 76.2386 111.117 76.2386C111.409 76.2386 111.673 76.1508 111.909 75.9167C112.348 75.5071 112.348 74.7712 111.909 74.3616L98.3924 60.8158C97.8657 60.2892 97.8657 59.4385 98.4216 58.9119C98.9482 58.4122 99.7989 58.4685 100.299 58.9996L113.786 72.4555C114.225 72.8943 114.929 72.8943 115.368 72.4555C115.809 72.0166 115.809 71.3122 115.368 70.8733L101.881 57.413C101.383 56.8864 101.325 56.0357 101.824 55.509C102.322 54.9509 103.202 54.9509 103.728 55.4798L121.087 72.838C122.844 74.5957 123.695 76.9407 123.639 79.2295C123.519 83.2759 125.133 87.1761 128.065 89.96L147.096 108.023" fill="#EF3A48"/>
<path d="M156.505 90.2841C152.344 94.4475 143.517 92.3928 136.863 85.738C132.846 81.7209 130.527 76.9722 130.176 72.8943C129.767 68.0579 127.712 63.4849 124.194 60.1406L103.377 40.3495C104.345 39.6451 105.371 38.9699 106.424 38.3848L120.148 51.4333L126.364 57.9419C126.483 58.0611 126.598 58.1489 126.717 58.2637C128.68 61.1376 129.882 64.4796 130.176 68.0287C130.527 72.0751 132.846 76.853 136.863 80.8431C143.517 87.5272 152.344 89.5504 156.505 85.3869C157.444 84.4485 158.031 83.2152 158.355 81.8694C159.028 85.2407 158.499 88.2879 156.505 90.2841" fill="#BCBBB9"/>
<path d="M94.9512 67.2657C94.9107 67.3039 94.895 67.3512 94.8635 67.3917L106.863 79.3938C107.298 79.8281 108.006 79.8281 108.443 79.3938C108.533 79.3038 108.524 79.1754 108.576 79.0697L96.8439 67.3355C96.3263 66.8178 95.4801 66.7683 94.9512 67.2657" fill="#BCBBB9"/>
<path d="M98.4148 63.8021C98.3743 63.8404 98.3563 63.8876 98.3248 63.9304L110.325 75.9302C110.761 76.3668 111.47 76.3668 111.907 75.9302C111.994 75.8402 111.988 75.7119 112.042 75.6061L100.305 63.8719C99.7899 63.3565 98.9436 63.3048 98.4148 63.8021" fill="#BCBBB9"/>
<path d="M101.82 60.3994C101.802 60.4152 101.797 60.4422 101.782 60.4602L113.788 72.4667C114.225 72.9033 114.934 72.9033 115.368 72.4667C115.458 72.379 115.449 72.2506 115.503 72.1426L103.728 60.3702C103.199 59.8413 102.335 59.8503 101.82 60.3994" fill="#BCBBB9"/>
<path d="M143.049 110.104C141.935 110.602 140.821 111.043 139.647 111.423L125.925 96.9974C123.139 94.0672 119.241 92.4243 115.192 92.5413C112.906 92.5998 110.59 91.7784 108.83 90.0207L106.337 87.4979L91.472 72.631C90.9161 72.1044 90.9454 71.2537 91.5035 70.727C92.0301 70.2274 92.8493 70.2859 93.3782 70.7856L106.866 84.2729C107.219 84.624 107.716 84.624 108.126 84.4169L108.83 85.1236C110.59 86.8813 112.906 87.7319 115.192 87.6734C119.21 87.5564 123.051 89.1385 125.835 92.0124C126.452 93.0409 127.185 94.0064 128.065 94.8571L132.873 99.4032L143.049 110.104" fill="#BCBBB9"/>
<path d="M164.382 58.7228C172.38 79.5063 162.021 102.837 141.238 110.838C162.021 102.837 179.136 76.9047 171.136 56.1212C163.137 35.3399 133.05 27.5801 112.267 35.5784C133.05 27.5801 156.384 37.9415 164.382 58.7228Z" fill="#C72227"/>
<path d="M89.1247 87.6937C81.1241 66.9102 91.4854 43.579 112.267 35.5784C91.4854 43.579 74.368 69.5096 82.3686 90.2931C90.3692 111.074 120.456 118.836 141.238 110.838C120.456 118.836 97.123 108.475 89.1247 87.6937" fill="#C72227"/>
</svg>
